# xmcd
#
# Track frame offsets: 
#        150
#        20839
#        33019
#        53048
#        69884
#        101454
#        126782
#        148530
#        167036
#        201588
#        213907
#        231023
#
# Disc length: 3310 seconds
#
# Revision: 1
# Processed by: cddbd v1.5.2PL0 Copyright (c) Steve Scherf et al.
# Submitted via: ExactAudioCopy v1.0b2
#
DISCID=a20cec0c
DTITLE=Chris Farlowe With The Hill - From Here To Mama Rosa
DYEAR=2017
DGENRE=Progressive Rock
TTITLE0=Travelling Into Make-Believe
TTITLE1=Fifty Years
TTITLE2=Where Do We Go From Here?
TTITLE3=Questions
TTITLE4=Head In The Clouds
TTITLE5=Are You Sleeping
TTITLE6=Black Sheep
TTITLE7=Winter Of My Life
TTITLE8=Mama Rosa
TTITLE9=Put Out The Lights (Bonus)
TTITLE10=Dawn (Bonus, with the Thunderbirds)
TTITLE11=April Was the Month (Bonus, with the Thunderbirds)
EXTD=
EXTT0=
EXTT1=
EXTT2=
EXTT3=
EXTT4=
EXTT5=
EXTT6=
EXTT7=
EXTT8=
EXTT9=
EXTT10=
EXTT11=
PLAYORDER=
